<?xml version="1.0" standalone="no"?>
<!DOCTYPE svg PUBLIC "-//W3C//DTD SVG 20010904//EN"
 "http://www.w3.org/TR/2001/REC-SVG-20010904/DTD/svg10.dtd">
<svg version="1.0" xmlns="http://www.w3.org/2000/svg"
 width="1024.000000pt" height="1024.000000pt" viewBox="0 0 1024.000000 1024.000000"
 preserveAspectRatio="xMidYMid meet">

<g transform="translate(0.000000,1024.000000) scale(0.100000,-0.100000)"
fill="#000000" stroke="none">
<path d="M6 10224 c-3 -8 -6 -2312 -6 -5120 l0 -5104 5120 0 5120 0 0 5120 0
5120 -5114 0 c-4640 0 -5114 -1 -5120 -16z m5579 -1444 c466 -60 804 -156
1160 -329 428 -209 736 -439 1115 -837 165 -174 355 -441 485 -684 217 -406
343 -813 417 -1345 19 -136 16 -577 -5 -755 -68 -575 -275 -1116 -630 -1645
-210 -312 -546 -648 -878 -877 -453 -313 -900 -497 -1414 -583 -239 -40 -402
-55 -615 -55 -487 0 -922 88 -1365 275 -370 157 -680 353 -1021 647 -301 259
-579 625 -788 1038 -147 291 -218 479 -295 782 -71 278 -86 412 -86 803 0 380
8 470 61 725 147 693 418 1219 898 1744 163 177 405 381 621 521 121 79 193
121 390 230 124 69 406 178 620 241 188 55 483 105 755 128 105 9 424 -4 575
-24z"/>
<path d="M3810 8281 l-75 -37 3 -70 c4 -80 53 -390 83 -514 92 -393 306 -827
509 -1031 143 -144 240 -226 306 -260 37 -19 78 -40 92 -48 64 -35 237 -91
331 -106 155 -26 398 -14 496 25 131 51 307 162 441 278 112 98 289 334 391
522 49 92 132 296 166 410 53 179 120 530 133 702 l7 84 -70 31 c-106 48 -106
48 -114 -17 -4 -30 -12 -112 -19 -183 -43 -492 -154 -837 -375 -1172 -129
-195 -344 -380 -534 -460 -125 -53 -169 -60 -361 -60 -204 0 -235 7 -400 90
-181 91 -324 212 -454 385 -142 189 -242 382 -317 610 -60 183 -85 308 -109
533 -30 291 -34 320 -45 323 -5 1 -44 -14 -85 -35z"/>
<path d="M4877 6239 c7 -7 15 -10 18 -7 3 3 -2 9 -12 12 -14 6 -15 5 -6 -5z"/>
<path d="M2048 6233 c7 -3 16 -2 19 1 4 3 -2 6 -13 5 -11 0 -14 -3 -6 -6z"/>
<path d="M4910 6222 c0 -4 9 -8 19 -8 11 0 17 4 15 8 -3 4 -12 8 -20 8 -8 0
-14 -4 -14 -8z"/>
<path d="M2020 6167 c0 -1 -4 -18 -10 -36 -5 -19 -6 -30 -1 -25 10 11 24 64
16 64 -3 0 -5 -1 -5 -3z"/>
<path d="M6506 6157 c3 -10 9 -15 12 -12 3 3 0 11 -7 18 -10 9 -11 8 -5 -6z"/>
<path d="M2083 6145 c-3 -9 -3 -19 1 -22 3 -4 6 1 6 10 0 8 6 18 13 20 9 4 9
6 -1 6 -7 1 -15 -6 -19 -14z"/>
<path d="M2000 6082 c0 -4 9 -8 19 -8 11 0 17 4 15 8 -3 4 -12 8 -20 8 -8 0
-14 -4 -14 -8z"/>
<path d="M2101 6074 c0 -11 3 -14 6 -6 3 7 2 16 -1 19 -3 4 -6 -2 -5 -13z"/>
<path d="M2200 6060 c0 -5 5 -10 11 -10 5 0 7 5 4 10 -3 6 -8 10 -11 10 -2 0
-4 -4 -4 -10z"/>
<path d="M1985 6029 c-4 -17 -3 -35 2 -40 5 -5 9 9 9 31 2 48 -2 51 -11 9z"/>
<path d="M2010 6046 c0 -2 7 -7 16 -10 8 -3 12 -2 9 4 -6 10 -25 14 -25 6z"/>
<path d="M2178 6033 c6 -2 9 -10 6 -15 -4 -7 -2 -8 5 -4 13 9 5 26 -12 25 -9
0 -8 -2 1 -6z"/>
<path d="M6553 5942 c-11 -48 -31 -121 -42 -162 -11 -41 -45 -169 -75 -285
-147 -568 -277 -1048 -316 -1164 -49 -148 -160 -527 -229 -781 -118 -437 -151
-558 -259 -930 -83 -289 -202 -715 -202 -726 0 -7 38 -6 113 3 187 23 176 17
223 103 22 41 67 122 99 180 32 58 82 148 110 200 111 204 285 508 368 645 47
77 235 401 282 485 23 41 69 122 102 180 33 58 105 186 160 285 55 99 124 221
153 270 29 50 92 162 140 250 47 88 94 172 103 186 l18 27 -192 -6 c-157 -4
-193 -3 -200 9 -5 8 -9 44 -9 80 0 66 0 67 31 73 17 3 96 6 175 6 102 0 144 3
144 11 0 12 -22 48 -211 344 -60 94 -137 226 -171 295 -35 69 -66 127 -70 128
-5 2 -8 9 -8 16 0 6 -16 43 -35 80 -37 72 -38 87 -5 79 32 -8 24 22 -15 62
-20 19 -33 40 -30 45 4 6 -6 10 -22 10 l-28 1 25 15 25 15 -28 -6 c-18 -3 -26
-2 -23 4 4 5 2 12 -4 16 -5 3 -10 0 -10 -7 -1 -8 -7 -6 -18 7 -44 50 -46 49
-69 -43z"/>
<path d="M2115 6009 c-4 -6 -5 -12 -2 -15 2 -3 7 2 10 11 7 17 1 20 -8 4z"/>
<path d="M2260 6010 c0 -5 7 -7 15 -4 8 4 15 8 15 10 0 2 -7 4 -15 4 -8 0 -15
-4 -15 -10z"/>
<path d="M2362 6004 c-7 -8 -8 -14 -3 -14 10 0 25 19 20 25 -2 1 -10 -3 -17
-11z"/>
<path d="M2211 5994 c-19 -14 -25 -14 -32 -3 -7 11 -9 11 -9 -2 0 -9 9 -19 20
-22 11 -3 20 0 20 5 0 6 8 17 18 24 25 19 11 17 -17 -2z"/>
<path d="M6628 6003 c7 -3 16 -2 19 1 4 3 -2 6 -13 5 -11 0 -14 -3 -6 -6z"/>
<path d="M2288 5993 c7 -3 16 -2 19 1 4 3 -2 6 -13 5 -11 0 -14 -3 -6 -6z"/>
<path d="M3795 5934 c-27 -35 -68 -104 -91 -152 -69 -149 -223 -409 -391 -665
-57 -86 -113 -176 -123 -200 l-19 -42 27 -8 c15 -4 72 -7 127 -5 55 1 130 1
168 0 l67 -2 0 -70 c0 -70 0 -70 -27 -70 -63 0 -398 -12 -400 -14 -4 -3 65
-127 262 -476 89 -157 189 -334 222 -395 124 -225 390 -688 462 -804 56 -90
249 -425 386 -671 169 -304 254 -439 278 -444 37 -8 269 -28 273 -24 3 4 -69
255 -185 648 -155 523 -217 743 -282 990 -79 302 -158 580 -249 875 -32 105
-79 264 -104 355 -92 335 -126 464 -126 474 0 38 -209 767 -220 765 -3 0 -27
-29 -55 -65z"/>
<path d="M2131 5974 c1 -11 1 -27 1 -38 -2 -18 -3 -18 -29 -1 -28 18 -28 18
-10 -2 14 -16 15 -23 6 -29 -7 -4 -15 -2 -17 4 -6 18 -39 14 -46 -4 -5 -14 -4
-15 8 -5 12 10 20 9 43 -6 26 -17 27 -18 5 -21 -26 -4 -29 -17 -6 -26 8 -3 12
-11 9 -16 -5 -8 -11 -8 -20 0 -16 13 -30 -4 -19 -22 6 -10 4 -10 -8 0 -11 9
-18 10 -23 2 -3 -5 -1 -10 4 -10 6 0 11 -4 11 -10 0 -5 -7 -10 -15 -10 -8 0
-15 9 -15 20 0 11 7 23 15 26 8 4 15 11 15 16 0 6 -7 8 -15 5 -8 -4 -17 -2
-20 4 -4 5 -11 7 -16 4 -5 -4 -9 1 -9 9 0 15 12 21 34 17 5 -1 6 5 3 13 -4 9
-2 18 3 21 6 4 10 12 10 18 0 7 -8 -1 -18 -16 -9 -16 -29 -31 -43 -34 -24 -4
-26 -10 -38 -96 -7 -51 -17 -121 -22 -157 -28 -188 -21 -719 13 -945 38 -260
173 -663 309 -922 283 -540 603 -922 1022 -1221 275 -196 670 -399 962 -495
131 -43 275 -80 283 -73 2 3 -47 92 -110 198 -63 106 -127 213 -141 238 -51
92 -212 368 -267 460 -176 292 -431 731 -570 980 -57 102 -160 282 -228 400
-69 118 -157 275 -195 349 -93 181 -94 179 40 377 134 200 215 328 286 454 61
107 158 256 209 321 34 45 37 61 4 28 -43 -43 -56 -51 -56 -37 0 8 -5 6 -11
-4 -5 -10 -16 -18 -23 -18 -8 0 -19 -7 -26 -15 -7 -8 -19 -15 -27 -15 -8 0
-35 -14 -60 -32 -26 -17 -52 -31 -60 -31 -7 0 -13 -4 -13 -8 0 -15 -42 -21
-52 -8 -7 10 -8 7 -5 -9 4 -18 2 -22 -9 -18 -8 3 -14 0 -14 -7 0 -7 -10 -18
-21 -26 -19 -11 -21 -11 -16 4 4 9 3 14 -3 10 -6 -3 -10 -12 -10 -19 0 -7 -23
-26 -52 -42 -50 -28 -88 -50 -184 -106 -52 -31 -73 -36 -54 -13 10 13 11 18 1
28 -10 9 -11 8 -6 -5 4 -11 2 -18 -4 -18 -6 0 -11 11 -11 24 0 25 -16 43 -28
31 -3 -3 0 -10 8 -15 8 -5 11 -12 7 -16 -3 -4 -13 -2 -20 4 -8 7 -17 8 -21 4
-4 -4 -6 0 -4 8 2 8 12 19 23 23 16 7 17 9 5 17 -9 6 -16 6 -18 0 -2 -6 -10
-6 -21 0 -10 5 -21 7 -24 3 -4 -3 -9 2 -13 11 -9 23 -27 20 -19 -4 3 -11 2
-20 -3 -20 -13 0 -20 20 -14 42 2 10 10 14 20 11 11 -5 14 -2 9 9 -3 9 1 24 9
35 14 17 15 17 9 -4 -4 -14 -2 -23 4 -23 6 0 11 6 11 13 0 8 10 19 23 25 20
11 20 12 2 10 -56 -5 -84 32 -49 67 11 10 13 19 6 28 -12 15 -9 51 6 69 8 11
7 17 -9 26 -21 13 -26 3 -7 -16 19 -19 -12 -15 -33 4 -16 15 -17 14 -12 -5 3
-11 14 -23 24 -26 25 -8 25 -25 0 -25 -11 0 -21 -6 -24 -12 -3 -10 -7 -10 -19
-1 -17 15 -29 7 -21 -13 3 -8 -1 -14 -9 -14 -20 0 -19 32 1 48 9 8 11 11 4 8
-6 -4 -14 -2 -18 4 -3 5 -1 10 4 10 6 0 11 7 11 15 0 8 4 15 10 15 18 0 6 49
-13 54 -18 4 -18 3 -2 -14 15 -17 15 -20 -1 -46 -11 -15 -20 -22 -22 -14 -2 6
1 17 7 23 6 6 11 15 11 20 0 5 -9 -1 -19 -14 -17 -21 -18 -26 -5 -40 17 -19
19 -38 2 -21 -7 7 -20 12 -30 12 -21 0 -24 16 -5 23 7 3 6 6 -5 6 -9 1 -20 -9
-23 -20 -5 -16 0 -27 19 -44 18 -16 23 -26 15 -30 -6 -4 -15 -1 -20 6 -5 8 -9
9 -9 4 0 -12 20 -35 31 -35 4 0 9 9 12 21 3 12 10 18 17 14 17 -10 -19 -47
-40 -40 -11 4 -21 -3 -28 -20 -10 -22 -9 -29 4 -42 9 -9 19 -12 22 -7 9 12 52
16 52 5 0 -5 -6 -11 -12 -13 -15 -5 13 -38 31 -38 6 0 11 -4 11 -10 0 -5 5
-10 11 -10 6 0 8 9 4 20 -4 12 -2 20 5 20 8 0 10 -10 8 -25 -3 -14 -2 -25 2
-25 4 0 7 -7 7 -15 0 -8 -4 -15 -9 -15 -4 0 -8 4 -8 10 0 15 -48 43 -61 35 -8
-6 -8 -10 2 -16 7 -4 10 -11 7 -15 -4 -3 -14 1 -23 10 -9 9 -12 16 -6 16 6 0
11 7 11 15 0 18 -17 20 -23 3 -2 -7 -8 -9 -13 -5 -5 5 -1 13 9 18 9 6 15 15
11 20 -4 6 -11 6 -20 -2 -11 -9 -14 -9 -14 0 0 7 -4 9 -10 6 -5 -3 -11 2 -12
12 0 10 -2 23 -2 29 -1 6 -7 18 -14 26 -6 8 -9 18 -5 21 3 4 -1 7 -10 7 -21 0
-22 -14 -2 -30 19 -16 15 -32 -9 -36 -13 -2 -15 1 -6 11 7 8 7 15 1 19 -5 3
-11 0 -14 -6 -2 -8 -8 -9 -13 -4 -5 5 -4 11 4 13 6 3 12 11 12 19 0 12 -4 12
-24 -3 -13 -10 -21 -22 -18 -27 3 -5 0 -6 -6 -2 -16 10 -15 -6 1 -24 10 -12 9
-12 -4 -2 -9 7 -25 9 -35 5 -10 -3 0 11 23 33 42 41 61 74 41 74 -9 0 -9 3 0
12 7 7 12 21 12 31 0 13 5 17 15 13 8 -3 15 -1 15 4 0 6 -5 10 -11 10 -7 0 -9
9 -6 21 5 19 4 20 -18 5 -27 -18 -55 -21 -55 -6 0 5 8 13 17 19 10 5 14 13 10
18 -5 4 -13 0 -18 -10 -6 -9 -16 -17 -23 -17 -9 0 -12 -9 -8 -25 2 -15 0 -25
-7 -25 -18 0 -13 -18 7 -23 10 -3 6 -5 -10 -6 -27 -1 -37 -14 -19 -25 5 -4 11
0 14 6 2 7 4 -3 4 -23 -1 -27 -5 -35 -15 -32 -7 3 -11 14 -9 24 7 26 -18 45
-38 29 -22 -18 -46 4 -26 23 10 8 12 8 7 0 -3 -6 -2 -14 4 -18 6 -3 13 1 16 9
3 9 9 14 13 11 5 -2 17 9 29 24 l21 29 -21 6 c-12 3 -28 0 -35 -5 -6 -6 -18
-7 -24 -3 -8 4 -9 3 -5 -4 4 -7 2 -12 -3 -12 -6 0 -11 5 -11 11 0 5 -4 8 -9 5
-5 -3 -8 5 -7 18 0 13 6 22 12 19 7 -2 15 0 19 6 4 7 -4 11 -19 11 -19 0 -24
4 -20 18 4 15 3 15 -8 -2 -38 -54 -46 -61 -59 -48 -11 10 -10 14 0 25 11 10
13 10 7 0 -5 -8 -1 -13 9 -13 11 0 15 5 12 14 -3 8 1 17 9 20 9 3 12 11 8 17
-4 8 -9 7 -15 -2 -9 -16 -61 -19 -71 -4 -11 14 -10 25 3 25 5 0 7 -4 4 -10
-11 -17 7 -11 21 8 8 10 13 12 14 5 0 -7 7 -13 15 -13 12 0 14 7 9 28 -10 46
-14 53 -24 47 -13 -8 -13 18 0 31 8 8 6 15 -5 24 -13 11 -15 10 -14 -6z m22
-80 c-6 -16 -6 -16 -27 -8 -24 9 -19 22 8 22 17 0 23 -5 19 -14z m-178 -54 c4
-6 11 -7 17 -4 7 4 8 2 4 -4 -10 -17 -33 -15 -40 3 -6 17 9 21 19 5z m115 -39
c0 -13 -29 -35 -37 -28 -3 4 2 9 11 13 9 3 13 10 10 15 -3 5 0 9 5 9 6 0 11
-4 11 -9z m35 -1 c-3 -5 -11 -10 -16 -10 -6 0 -7 5 -4 10 3 6 11 10 16 10 6 0
7 -4 4 -10z m-145 -10 c0 -5 -5 -10 -11 -10 -5 0 -7 5 -4 10 3 6 8 10 11 10 2
0 4 -4 4 -10z m226 -15 c-7 -20 3 -45 19 -45 8 0 11 -8 8 -21 -5 -19 -7 -18
-21 10 -14 31 -35 40 -47 21 -3 -5 -1 -10 4 -10 6 0 11 -5 11 -11 0 -8 -4 -8
-14 1 -17 13 -10 40 9 40 7 0 15 7 19 15 3 8 8 15 12 15 3 0 4 -7 0 -15z m-93
-9 c4 -10 1 -13 -9 -9 -15 6 -19 23 -5 23 5 0 11 -7 14 -14z m-96 -24 l13 -27
-19 22 c-10 12 -22 19 -26 15 -5 -4 -5 -1 -1 6 11 19 20 15 33 -16z m403 -7
c-6 -8 -8 -20 -4 -26 5 -9 2 -10 -9 -6 -20 7 -22 -4 -5 -21 9 -9 9 -15 0 -24
-9 -9 -12 -8 -12 5 0 9 -5 17 -11 17 -6 0 -9 -9 -6 -19 2 -10 0 -25 -5 -32 -8
-11 -9 -10 -4 4 3 9 1 17 -4 17 -17 0 -11 28 8 39 14 8 15 12 5 22 -15 15 -17
43 -3 34 6 -4 8 -12 4 -18 -3 -7 1 -4 9 5 8 10 17 15 20 11 4 -3 10 2 14 13 4
11 8 13 11 6 2 -7 -1 -19 -8 -27z m-340 15 c0 -5 -5 -10 -11 -10 -5 0 -7 5 -4
10 3 6 8 10 11 10 2 0 4 -4 4 -10z m215 -20 c-3 -5 -14 -10 -23 -9 -14 0 -13
2 3 9 27 11 27 11 20 0z m-177 -34 c-7 -8 -15 -12 -17 -11 -5 6 10 25 20 25 5
0 4 -6 -3 -14z m465 -10 c8 -19 -19 -15 -31 5 -9 14 -8 16 8 12 10 -3 21 -11
23 -17z m-498 4 c3 -5 1 -10 -4 -10 -6 0 -11 5 -11 10 0 6 2 10 4 10 3 0 8 -4
11 -10z m83 -15 c-3 -3 -9 2 -12 12 -6 14 -5 15 5 6 7 -7 10 -15 7 -18z m529
-8 c11 4 14 3 9 -6 -5 -7 -14 -10 -21 -7 -7 2 -16 -1 -19 -9 -3 -8 0 -15 6
-17 6 -2 8 -10 4 -16 -11 -18 -26 -14 -26 7 0 24 -29 36 -36 16 -4 -8 -10 -12
-15 -9 -16 10 -9 22 16 28 14 4 23 11 20 15 -3 5 4 7 15 4 13 -3 20 0 21 8 1
9 3 7 6 -3 3 -11 10 -15 20 -11z m-546 -4 c13 -16 12 -17 -3 -4 -10 7 -18 15
-18 17 0 8 8 3 21 -13z m79 2 c0 -2 -9 -3 -19 -2 -11 0 -18 5 -15 9 4 6 34 0
34 -7z m-120 -4 c0 -5 -7 -12 -16 -15 -14 -5 -15 -4 -4 9 14 17 20 19 20 6z
m-76 -27 c5 -14 4 -15 -9 -4 -17 14 -19 20 -6 20 5 0 12 -7 15 -16z m262 -21
c-10 -10 -19 5 -10 18 6 11 8 11 12 0 2 -7 1 -15 -2 -18z m338 2 c-4 -8 -11
-12 -16 -9 -6 4 -8 -1 -4 -14 4 -12 2 -23 -5 -28 -8 -4 -9 -3 -5 5 4 6 1 18
-8 26 -19 19 -26 19 -26 -1 0 -14 -3 -14 -15 -4 -10 9 -15 9 -15 1 0 -6 -5
-11 -11 -11 -6 0 -9 6 -6 13 2 6 11 12 21 12 9 0 21 7 26 15 9 13 11 13 21 0
9 -13 11 -13 22 2 13 19 29 14 21 -7z m-328 -43 c-17 -16 -18 -16 -5 5 7 12
15 20 18 17 3 -2 -3 -12 -13 -22z m-156 -17 c0 -5 -5 -3 -10 5 -5 8 -10 20
-10 25 0 6 5 3 10 -5 5 -8 10 -19 10 -25z m100 31 c0 -3 -4 -8 -10 -11 -5 -3
-10 -1 -10 4 0 6 5 11 10 11 6 0 10 -2 10 -4z m402 -20 c-2 -9 4 -16 13 -16 9
0 13 -4 10 -10 -4 -6 -14 -5 -27 3 -16 9 -22 9 -25 0 -5 -15 -23 -17 -23 -4 0
5 9 13 21 16 13 4 18 12 15 22 -4 9 -1 13 6 10 7 -2 12 -11 10 -21z m38 4 c0
-5 -4 -10 -10 -10 -5 0 -10 5 -10 10 0 6 5 10 10 10 6 0 10 -4 10 -10z m-235
-20 c3 -5 1 -10 -4 -10 -6 0 -11 5 -11 10 0 6 2 10 4 10 3 0 8 -4 11 -10z m26
-13 c-10 -9 -11 -8 -5 6 3 10 9 15 12 12 3 -3 0 -11 -7 -18z m-65 -15 c-18
-16 -18 -16 -6 6 6 13 14 21 18 18 3 -4 -2 -14 -12 -24z m-51 -2 c3 -5 -1 -10
-10 -10 -9 0 -13 5 -10 10 3 6 8 10 10 10 2 0 7 -4 10 -10z m115 -10 c0 -5 -4
-10 -9 -10 -6 0 -13 5 -16 10 -3 6 1 10 9 10 9 0 16 -4 16 -10z m35 -9 c-3 -6
-11 -11 -17 -11 -6 0 -6 6 2 15 14 17 26 13 15 -4z m-122 -26 c-3 -9 -8 -14
-10 -11 -3 3 -2 9 2 15 9 16 15 13 8 -4z m-93 1 c0 -3 -4 -8 -10 -11 -5 -3
-10 -1 -10 4 0 6 5 11 10 11 6 0 10 -2 10 -4z m160 0 c0 -3 -4 -8 -10 -11 -5
-3 -10 -1 -10 4 0 6 5 11 10 11 6 0 10 -2 10 -4z m80 -7 c0 -5 -5 -7 -12 -3
-8 5 -9 2 -5 -9 3 -9 2 -19 -3 -22 -11 -7 -14 28 -3 38 10 10 23 8 23 -4z
m-273 -21 c-3 -8 -6 -5 -6 6 -1 11 2 17 5 13 3 -3 4 -12 1 -19z m353 18 c0 -3
-4 -8 -10 -11 -5 -3 -10 -1 -10 4 0 6 5 11 10 11 6 0 10 -2 10 -4z m-290 -10
c0 -3 -4 -8 -10 -11 -5 -3 -10 -1 -10 4 0 6 5 11 10 11 6 0 10 -2 10 -4z m404
-4 c2 -4 1 -14 -4 -22 -8 -13 -12 -12 -27 3 -17 17 -17 18 1 11 13 -5 17 -4
12 4 -4 7 -3 12 3 12 5 0 12 -4 15 -8z m-274 -34 c0 -5 -7 -3 -15 6 -8 8 -15
18 -15 22 0 3 7 1 15 -6 8 -7 15 -17 15 -22z m145 14 c-3 -3 -11 0 -18 7 -9
10 -8 11 6 5 10 -3 15 -9 12 -12z m-105 -1 c0 -6 -4 -13 -10 -16 -5 -3 -10 1
-10 9 0 9 5 16 10 16 6 0 10 -4 10 -9z m213 -45 c-3 -5 -10 -1 -15 8 -6 10
-16 15 -28 11 -10 -3 -20 0 -23 9 -4 10 0 12 15 8 16 -4 19 -2 13 9 -5 8 3 3
17 -11 15 -13 24 -29 21 -34z m-143 40 c0 -3 -4 -8 -10 -11 -5 -3 -10 -1 -10
4 0 6 5 11 10 11 6 0 10 -2 10 -4z m-40 -20 c0 -8 -7 -16 -15 -20 -12 -4 -13
-2 -2 14 14 24 17 25 17 6z m-97 -33 c-3 -7 -10 -10 -15 -7 -6 4 -5 10 3 15
11 7 11 9 1 9 -7 0 -10 5 -6 11 9 15 24 -9 17 -28z m157 33 c0 -3 -4 -8 -10
-11 -5 -3 -10 -1 -10 4 0 6 5 11 10 11 6 0 10 -2 10 -4z m30 -3 c0 -5 -13 -17
-27 -27 l-27 -20 20 27 c18 26 34 35 34 20z m170 -14 l25 -20 -35 17 c-43 20
-47 24 -29 24 8 0 25 -10 39 -21z m-240 -19 c0 -5 -4 -10 -10 -10 -5 0 -10 5
-10 10 0 6 5 10 10 10 6 0 10 -4 10 -10z m130 -4 c0 -3 -4 -8 -10 -11 -5 -3
-10 -1 -10 4 0 6 5 11 10 11 6 0 10 -2 10 -4z m44 -12 c3 -8 2 -12 -4 -9 -6 3
-10 10 -10 16 0 14 7 11 14 -7z m46 6 c0 -5 -4 -10 -10 -10 -5 0 -10 5 -10 10
0 6 5 10 10 10 6 0 10 -4 10 -10z m-135 -9 c3 -5 1 -12 -5 -16 -5 -3 -10 1
-10 9 0 18 6 21 15 7z m-95 -11 c0 -5 -4 -10 -10 -10 -5 0 -10 5 -10 10 0 6 5
10 10 10 6 0 10 -4 10 -10z m-73 -32 c-3 -8 -6 -5 -6 6 -1 11 2 17 5 13 3 -3
4 -12 1 -19z m-97 2 c0 -5 -5 -10 -11 -10 -5 0 -7 5 -4 10 3 6 8 10 11 10 2 0
4 -4 4 -10z m64 1 c4 -5 -3 -7 -14 -4 -23 6 -26 13 -6 13 8 0 17 -4 20 -9z
m207 -24 c-10 -9 -11 -8 -5 6 3 10 9 15 12 12 3 -3 0 -11 -7 -18z m-413 -12
c-3 -3 -9 2 -12 12 -6 14 -5 15 5 6 7 -7 10 -15 7 -18z m186 7 c3 -5 -1 -9 -9
-9 -8 0 -12 4 -9 9 3 4 7 8 9 8 2 0 6 -4 9 -8z m146 -2 c0 -5 -5 -10 -11 -10
-5 0 -7 5 -4 10 3 6 8 10 11 10 2 0 4 -4 4 -10z m40 0 c0 -5 -2 -10 -4 -10 -3
0 -8 5 -11 10 -3 6 -1 10 4 10 6 0 11 -4 11 -10z m-87 -15 c-3 -9 -8 -14 -10
-11 -3 3 -2 9 2 15 9 16 15 13 8 -4z m72 -5 c3 -5 1 -10 -4 -10 -6 0 -11 5
-11 10 0 6 2 10 4 10 3 0 8 -4 11 -10z m70 0 c-3 -5 -12 -10 -18 -10 -7 0 -6
4 3 10 19 12 23 12 15 0z m-87 -35 c-3 -3 -9 2 -12 12 -6 14 -5 15 5 6 7 -7
10 -15 7 -18z m-213 -15 c-3 -5 -11 -10 -16 -10 -6 0 -7 5 -4 10 3 6 11 10 16
10 6 0 7 -4 4 -10z m-200 -20 c3 -6 -1 -7 -9 -4 -18 7 -21 14 -7 14 6 0 13 -4
16 -10z m-150 -79 c3 -5 1 -12 -5 -16 -5 -3 -10 1 -10 9 0 18 6 21 15 7z m885
-1040 c36 -36 46 -73 29 -112 -13 -33 -61 -69 -92 -69 -35 0 -79 31 -94 67
-18 45 -10 78 29 115 41 38 89 38 128 -1z m477 -816 c13 -9 27 -34 33 -56 23
-85 -49 -152 -124 -117 -65 31 -85 137 -33 173 28 19 96 19 124 0z"/>
<path d="M2390 5980 c-8 -5 -12 -12 -9 -15 4 -3 12 1 19 10 14 17 11 19 -10 5z"/>
<path d="M2100 5970 c0 -5 5 -10 11 -10 5 0 7 5 4 10 -3 6 -8 10 -11 10 -2 0
-4 -4 -4 -10z"/>
<path d="M1970 5969 c0 -2 -4 -19 -9 -37 -9 -29 -8 -32 12 -32 12 0 18 4 12 8
-14 10 -18 42 -6 42 5 0 12 -8 14 -17 4 -15 5 -15 6 -2 0 9 -6 22 -14 29 -8 7
-15 11 -15 9z"/>
<path d="M2467 5959 c7 -7 15 -10 18 -7 3 3 -2 9 -12 12 -14 6 -15 5 -6 -5z"/>
<path d="M2170 5950 c-12 -8 -10 -10 8 -10 13 0 20 4 17 10 -7 12 -6 12 -25 0z"/>
<path d="M2406 5943 c-6 -14 -5 -15 5 -6 7 7 10 15 7 18 -3 3 -9 -2 -12 -12z"/>
<path d="M2260 5935 c-7 -9 -8 -15 -2 -15 5 0 12 7 16 15 3 8 4 15 2 15 -2 0
-9 -7 -16 -15z"/>
<path d="M2425 5929 c-4 -6 -5 -12 -2 -15 2 -3 7 2 10 11 7 17 1 20 -8 4z"/>
<path d="M2500 5930 c0 -5 5 -10 11 -10 5 0 7 5 4 10 -3 6 -8 10 -11 10 -2 0
-4 -4 -4 -10z"/>
<path d="M8215 5930 c3 -5 8 -10 11 -10 2 0 4 5 4 10 0 6 -5 10 -11 10 -5 0
-7 -4 -4 -10z"/>
<path d="M2200 5916 c0 -8 -6 -17 -12 -20 -7 -3 -2 -3 12 0 24 7 24 6 7 -19
-20 -30 -9 -43 19 -22 10 8 27 15 37 15 16 0 16 1 0 18 -10 10 -20 14 -21 9
-2 -4 -10 -2 -18 4 -12 10 -12 14 -2 20 10 7 9 9 -4 9 -10 0 -18 -6 -18 -14z
m40 -41 c-7 -9 -15 -13 -19 -10 -3 3 1 10 9 15 21 14 24 12 10 -5z"/>
<path d="M2680 5920 c0 -5 5 -10 11 -10 5 0 7 5 4 10 -3 6 -8 10 -11 10 -2 0
-4 -4 -4 -10z"/>
<path d="M8260 5920 c0 -5 5 -10 11 -10 5 0 7 5 4 10 -3 6 -8 10 -11 10 -2 0
-4 -4 -4 -10z"/>
<path d="M2458 5913 c7 -3 16 -2 19 1 4 3 -2 6 -13 5 -11 0 -14 -3 -6 -6z"/>
<path d="M2288 5903 c7 -3 16 -2 19 1 4 3 -2 6 -13 5 -11 0 -14 -3 -6 -6z"/>
<path d="M2038 5876 c-34 -12 -36 -21 -4 -22 14 -1 27 5 31 14 7 20 5 20 -27
8z"/>
<path d="M2365 5879 c-4 -6 -5 -12 -2 -15 2 -3 7 2 10 11 7 17 1 20 -8 4z"/>
<path d="M5770 5869 c-134 -36 -351 -144 -366 -183 -3 -7 9 -29 27 -47 17 -19
45 -63 63 -99 27 -57 31 -75 30 -145 -1 -96 -23 -154 -89 -231 l-44 -51 22
-20 c139 -125 387 -207 525 -173 173 41 259 255 232 580 -17 208 -39 281 -102
335 -68 57 -167 69 -298 34z"/>
<path d="M2293 5873 c4 -6 2 -13 -4 -15 -7 -2 -6 -8 3 -16 12 -9 14 -8 13 8
-1 11 -5 23 -10 27 -4 5 -5 3 -2 -4z"/>
<path d="M2325 5870 c3 -5 11 -10 16 -10 6 0 7 5 4 10 -3 6 -11 10 -16 10 -6
0 -7 -4 -4 -10z"/>
<path d="M2540 5859 c-6 -11 -10 -25 -8 -30 2 -5 8 4 15 21 13 34 9 40 -7 9z"/>
<path d="M4417 5866 c-72 -26 -104 -74 -138 -204 -49 -188 -28 -490 43 -632
29 -56 41 -69 88 -95 115 -62 267 -33 520 98 l125 65 -43 48 c-23 27 -55 74
-70 104 -23 47 -27 68 -27 140 0 72 4 94 27 143 15 32 41 76 58 97 16 21 30
43 30 49 0 32 -214 148 -332 181 -85 23 -223 26 -281 6z"/>
<path d="M8436 5868 c3 -5 10 -6 15 -3 13 9 11 12 -6 12 -8 0 -12 -4 -9 -9z"/>
<path d="M2446 5855 c-9 -26 -7 -32 5 -12 6 10 9 21 6 23 -2 3 -7 -2 -11 -11z"/>
<path d="M2497 5859 c7 -7 15 -10 18 -7 3 3 -2 9 -12 12 -14 6 -15 5 -6 -5z"/>
<path d="M2737 5859 c7 -7 15 -10 18 -7 3 3 -2 9 -12 12 -14 6 -15 5 -6 -5z"/>
<path d="M2365 5839 c-18 -19 -20 -19 -32 -3 -7 10 -13 14 -13 8 0 -5 9 -20
19 -33 l19 -24 6 21 c8 24 26 28 44 10 9 -9 12 -9 12 0 0 7 -7 15 -15 18 -8 4
-12 10 -9 15 10 16 -11 8 -31 -12z"/>
<path d="M8190 5850 c0 -5 5 -10 11 -10 5 0 7 5 4 10 -3 6 -8 10 -11 10 -2 0
-4 -4 -4 -10z"/>
<path d="M2140 5840 c0 -5 5 -10 11 -10 5 0 7 5 4 10 -3 6 -8 10 -11 10 -2 0
-4 -4 -4 -10z"/>
<path d="M2235 5841 c-3 -5 -1 -12 4 -15 5 -3 11 1 15 9 6 16 -9 21 -19 6z"/>
<path d="M2610 5841 c0 -6 4 -13 10 -16 6 -3 7 1 4 9 -7 18 -14 21 -14 7z"/>
<path d="M2707 5843 c-12 -11 -8 -40 6 -52 10 -8 14 -7 14 4 0 8 -5 15 -10 15
-5 0 -7 9 -4 20 5 21 4 24 -6 13z"/>
<path d="M7750 5840 c-9 -6 -10 -10 -3 -10 6 0 15 5 18 10 8 12 4 12 -15 0z"/>
<path d="M2270 5814 c0 -8 5 -12 10 -9 6 3 10 10 10 16 0 5 -4 9 -10 9 -5 0
-10 -7 -10 -16z"/>
<path d="M2739 5817 c6 -8 7 -18 3 -22 -4 -5 -2 -5 5 -1 14 8 6 36 -9 36 -7 0
-6 -5 1 -13z"/>
<path d="M2305 5811 c-3 -6 -2 -11 4 -11 6 0 8 -7 5 -15 -4 -8 -1 -15 4 -15
18 0 21 14 7 33 -8 12 -15 14 -20 8z"/>
<path d="M2422 5805 c-15 -18 -1 -20 16 -3 10 10 15 10 23 -2 9 -13 10 -13 6
0 -5 20 -29 23 -45 5z"/>
<path d="M2559 5813 c0 -5 -2 -18 -3 -30 -1 -12 1 -20 4 -18 8 5 11 55 4 55
-2 0 -4 -3 -5 -7z"/>
<path d="M2775 5810 c-3 -6 0 -17 9 -25 8 -8 17 -11 20 -6 3 5 -1 12 -10 15
-8 3 -12 10 -9 16 3 5 4 10 1 10 -3 0 -8 -5 -11 -10z"/>
<path d="M8286 5799 c5 -8 7 -22 6 -31 -4 -20 32 -26 43 -8 3 5 0 7 -8 4 -8
-3 -18 -1 -22 5 -3 6 1 11 11 11 16 0 11 15 -4 15 -4 0 -13 4 -21 9 -11 7 -12
6 -5 -5z"/>
<path d="M2486 5791 c-4 -5 -2 -12 3 -15 5 -4 12 -2 15 3 4 5 2 12 -3 15 -5 4
-12 2 -15 -3z"/>
<path d="M7860 5790 c0 -5 5 -10 11 -10 5 0 7 5 4 10 -3 6 -8 10 -11 10 -2 0
-4 -4 -4 -10z"/>
<path d="M2255 5780 c-13 -6 -15 -9 -5 -9 8 0 22 4 30 9 18 12 2 12 -25 0z"/>
<path d="M2525 5780 c3 -5 8 -10 11 -10 2 0 4 5 4 10 0 6 -5 10 -11 10 -5 0
-7 -4 -4 -10z"/>
<path d="M8256 5777 c3 -10 9 -15 12 -12 3 3 0 11 -7 18 -10 9 -11 8 -5 -6z"/>
<path d="M2750 5770 c0 -5 5 -10 10 -10 6 0 10 5 10 10 0 6 -4 10 -10 10 -5 0
-10 -4 -10 -10z"/>
<path d="M2471 5764 c-1 -6 6 -17 14 -24 12 -10 15 -9 15 4 0 10 -4 15 -9 12
-5 -4 -12 0 -14 6 -4 8 -6 9 -6 2z"/>
<path d="M6972 5657 c39 -62 102 -166 141 -232 38 -66 117 -190 175 -275 210
-308 232 -343 232 -378 0 -37 -6 -51 -100 -217 -37 -66 -100 -178 -140 -250
-40 -71 -103 -182 -140 -245 -37 -63 -91 -158 -120 -210 -103 -186 -165 -295
-322 -565 -41 -71 -102 -177 -135 -235 -141 -248 -470 -807 -581 -989 -55 -90
-62 -107 -36 -97 9 3 60 17 113 31 512 130 1054 437 1455 825 379 367 724 926
880 1427 73 234 132 535 141 718 3 66 8 149 11 184 4 55 3 63 -10 52 -11 -9
-16 -9 -22 1 -4 7 -4 10 1 6 16 -15 35 15 35 57 0 23 -3 45 -7 48 -3 4 -6 42
-5 84 0 43 -2 70 -5 61 -2 -10 -9 -18 -15 -18 -5 0 -8 7 -4 15 3 8 2 24 -2 35
-8 21 -8 21 -30 -1 -13 -11 -26 -18 -30 -14 -3 3 -2 9 4 13 9 6 10 18 5 87 -1
13 -4 16 -9 8 -11 -18 -60 -34 -67 -23 -4 6 5 10 18 10 14 0 27 6 30 14 8 21
-21 28 -33 8 -11 -15 -11 -15 -6 2 5 13 2 17 -9 12 -8 -3 -15 0 -15 6 0 6 -8
3 -19 -6 -11 -10 -22 -13 -25 -8 -3 6 0 12 6 15 7 2 9 8 5 13 -5 5 -13 1 -18
-8 -5 -9 -16 -24 -25 -33 -8 -8 -11 -15 -5 -15 6 0 8 -7 5 -15 -4 -8 -10 -15
-15 -15 -13 0 -1 63 13 71 13 8 -13 39 -33 39 -7 0 -4 -6 6 -14 19 -14 19 -15
2 -34 -10 -10 -15 -26 -11 -35 3 -10 -2 -20 -15 -27 -12 -6 -21 -17 -21 -25 0
-7 -5 -17 -11 -21 -15 -9 -1 36 17 57 20 22 17 31 -6 19 -11 -6 -20 -18 -20
-28 0 -14 -2 -15 -9 -3 -7 10 -4 20 8 30 22 19 37 61 22 61 -6 0 -11 -6 -11
-12 0 -22 -45 -57 -60 -48 -14 9 -55 -5 -79 -26 -9 -8 -21 -10 -37 -3 -27 9
-29 6 -14 -21 6 -12 18 -17 30 -15 11 2 18 0 15 -5 -6 -9 -24 -8 -42 3 -6 4
-13 2 -15 -4 -2 -7 -4 5 -5 25 -1 42 17 56 44 35 13 -11 17 -11 20 -1 3 6 14
12 24 12 11 0 17 5 14 10 -3 6 1 10 9 10 9 0 16 4 16 9 0 12 -30 8 -38 -6 -9
-14 -52 -27 -52 -16 0 16 71 44 92 37 15 -4 19 -2 16 7 -3 8 -19 14 -39 14
-28 0 -34 3 -32 20 1 11 0 14 -3 8 -3 -7 -15 -13 -26 -13 -18 0 -19 2 -7 18 7
10 3 8 -10 -4 -17 -16 -21 -28 -16 -43 3 -12 11 -18 17 -15 6 4 6 10 -1 17
-15 15 -14 30 2 20 6 -4 18 -8 26 -8 8 0 16 -6 19 -14 2 -8 0 -11 -5 -8 -6 4
-18 -2 -28 -13 -10 -11 -22 -17 -26 -14 -5 3 -12 -2 -15 -10 -8 -20 -24 -21
-24 -1 0 8 7 15 15 15 8 0 15 5 15 10 0 6 -5 10 -10 10 -6 0 -10 6 -9 13 3 26
-1 37 -15 37 -13 0 -13 -4 0 -27 12 -25 12 -29 -1 -39 -19 -14 -19 -22 0 -40
17 -18 20 -34 4 -34 -5 0 -7 5 -3 12 4 7 3 8 -4 4 -17 -10 -15 -19 8 -44 17
-18 19 -25 8 -42 -7 -11 -17 -20 -22 -20 -4 0 -3 7 4 15 11 13 11 20 0 40 -7
14 -17 25 -22 25 -5 0 -4 9 2 19 12 24 13 34 1 27 -5 -4 -7 2 -4 13 3 10 0 22
-6 25 -6 4 -11 14 -11 22 0 8 4 13 9 9 5 -3 12 -1 15 4 3 5 -1 11 -9 15 -8 3
-15 1 -15 -5 0 -6 -5 -7 -10 -4 -6 4 -8 11 -5 16 4 5 1 9 -4 9 -6 0 -11 -7
-11 -15 0 -8 -7 -15 -15 -15 -9 0 -12 -6 -9 -15 5 -11 2 -13 -10 -9 -21 8 -20
1 4 -46 12 -23 28 -40 37 -40 16 0 16 1 1 16 -13 14 -14 21 -5 38 7 11 13 23
14 25 1 1 6 0 12 -4 8 -4 8 -12 0 -27 -8 -15 -8 -22 1 -28 8 -5 7 -12 -5 -24
-20 -20 -34 -20 -41 -2 -3 9 -12 12 -22 9 -11 -5 -14 -2 -9 10 3 9 3 26 -1 38
-7 17 -10 19 -20 7 -9 -11 -8 -22 6 -49 10 -20 22 -34 28 -32 5 2 15 -7 22
-18 12 -19 11 -24 -6 -42 -20 -19 -20 -19 -32 2 -9 18 -14 20 -26 10 -12 -10
-13 -9 -8 5 9 23 35 20 41 -5 4 -16 8 -17 14 -7 13 20 11 38 -6 38 -8 0 -20 9
-27 20 -7 11 -17 20 -21 20 -5 0 -5 -9 -2 -20 4 -11 2 -20 -4 -20 -6 0 -11
-10 -11 -22 0 -22 0 -22 -17 2 -9 14 -17 26 -18 28 -7 10 -33 -13 -28 -25 3
-8 0 -19 -7 -23 -11 -7 -10 -12 3 -25 10 -9 17 -21 17 -27 0 -7 5 -6 14 1 11
9 15 9 19 -1 4 -11 6 -10 6 0 1 7 5 10 11 7 6 -4 5 -13 -3 -25 -14 -23 -29
-27 -21 -5 4 8 1 15 -5 15 -6 0 -11 -6 -11 -12 0 -10 -3 -9 -9 1 -7 11 -9 11
-14 0 -8 -20 -28 11 -21 33 6 21 -14 35 -22 14 -3 -8 2 -26 12 -41 19 -30 12
-45 -11 -22 -9 9 -23 13 -32 10 -11 -4 -14 -3 -9 6 5 7 14 10 22 7 8 -3 14 -1
14 4 0 6 -7 10 -15 10 -8 0 -12 6 -9 14 6 15 -33 29 -42 15 -3 -5 1 -9 9 -9 8
0 17 -7 21 -15 3 -9 0 -15 -9 -15 -8 0 -15 5 -15 10 0 6 -9 10 -21 10 -11 0
-18 -4 -14 -10 9 -14 -46 7 -75 30 -14 11 -19 20 -12 20 6 0 12 5 12 11 0 8
-4 8 -15 -1 -11 -9 -32 -2 -107 41 -150 84 -170 99 -164 116 5 13 4 14 -8 4
-11 -10 -19 -7 -38 12 -13 13 -35 27 -48 30 -14 4 -40 20 -58 37 -19 16 -42
32 -53 35 -10 4 -19 11 -19 16 0 5 -9 9 -20 9 -11 0 -20 3 -20 8 0 4 -15 8
-34 9 l-35 1 71 -111z m948 -36 c0 -12 -20 -25 -27 -18 -7 7 6 27 18 27 5 0 9
-4 9 -9z m450 -36 c0 -8 -4 -15 -10 -15 -5 0 -10 7 -10 15 0 8 5 15 10 15 6 0
10 -7 10 -15z m-470 -5 c0 -5 -7 -10 -15 -10 -8 0 -15 5 -15 10 0 6 7 10 15
10 8 0 15 -4 15 -10z m446 -11 c19 -21 19 -21 -11 -45 -17 -14 -29 -32 -27
-42 2 -12 1 -14 -6 -4 -7 10 -11 10 -22 -3 -7 -8 -18 -15 -24 -15 -6 0 2 11
17 24 15 13 27 28 26 32 -4 23 2 44 12 44 6 0 9 -9 6 -19 -3 -14 -1 -18 9 -14
19 7 18 32 -1 39 -8 4 -15 10 -15 15 0 15 16 10 36 -12z m-496 -20 c0 -6 -4
-7 -10 -4 -5 3 -10 11 -10 16 0 6 5 7 10 4 6 -3 10 -11 10 -16z m300 4 c0 -12
-20 -39 -20 -28 0 6 -4 4 -9 -4 -5 -7 -15 -11 -22 -9 -9 3 -7 10 9 26 22 22
42 29 42 15z m298 -5 c-3 -13 -40 -37 -47 -32 -3 3 39 43 47 44 1 0 1 -6 0
-12z m-63 -8 c3 -5 1 -10 -4 -10 -6 0 -11 5 -11 10 0 6 2 10 4 10 3 0 8 -4 11
-10z m-210 -10 c3 -5 1 -10 -4 -10 -6 0 -11 5 -11 10 0 6 2 10 4 10 3 0 8 -4
11 -10z m73 -44 c-14 -20 -28 -33 -31 -29 -11 10 -8 23 5 21 6 -2 14 6 16 17
2 11 9 23 15 27 21 13 19 0 -5 -36z m-98 13 c0 -5 -5 -7 -12 -3 -8 5 -9 0 -6
-14 4 -12 3 -24 -1 -27 -8 -5 -12 22 -5 43 4 15 24 16 24 1z m202 -11 c-7 -7
-12 -8 -12 -2 0 14 12 26 19 19 2 -3 -1 -11 -7 -17z m-402 2 c0 -5 -2 -10 -4
-10 -3 0 -8 5 -11 10 -3 6 -1 10 4 10 6 0 11 -4 11 -10z m230 2 c0 -5 -7 -17
-15 -28 -14 -18 -14 -17 -4 9 12 27 19 34 19 19z m-232 -30 c7 7 12 8 12 3 0
-15 -50 -59 -58 -51 -3 4 0 11 7 15 8 6 11 17 7 32 -6 22 -6 22 7 7 10 -13 16
-15 25 -6z m115 2 c-3 -8 -10 -14 -15 -14 -6 0 -7 -7 -4 -16 5 -14 4 -15 -9
-4 -11 9 -12 16 -5 25 8 9 7 14 -2 18 -7 2 -1 4 14 4 18 0 25 -4 21 -13z m357
6 c0 -5 -5 -10 -11 -10 -5 0 -7 5 -4 10 3 6 8 10 11 10 2 0 4 -4 4 -10z m74
-6 c3 -8 2 -12 -4 -9 -6 3 -10 10 -10 16 0 14 7 11 14 -7z m-290 -29 c5 -23 4
-26 -4 -13 -7 11 -17 15 -28 11 -14 -5 -14 -3 3 14 11 11 20 20 21 19 1 0 4
-14 8 -31z m-438 10 c-4 -10 1 -15 14 -15 21 0 27 -15 11 -25 -12 -7 -41 22
-41 41 0 8 5 14 11 14 6 0 9 -7 5 -15z m318 6 c3 -5 -1 -11 -9 -14 -9 -4 -12
-1 -8 9 6 16 10 17 17 5z m209 -6 c-3 -9 -8 -14 -10 -11 -3 3 -2 9 2 15 9 16
15 13 8 -4z m-29 -3 c-18 -12 -26 -45 -12 -55 9 -6 8 -7 -4 -3 -10 3 -18 0
-18 -6 0 -6 -3 -8 -6 -5 -10 9 25 77 39 77 8 0 9 -3 1 -8z m88 -17 c4 -20 2
-23 -8 -14 -7 6 -10 17 -7 25 7 20 10 18 15 -11z m138 -19 c0 -6 -7 -1 -15 10
-8 10 -15 23 -15 28 0 6 7 1 15 -10 8 -10 15 -23 15 -28z m-340 24 c0 -5 -4
-10 -10 -10 -5 0 -10 5 -10 10 0 6 5 10 10 10 6 0 10 -4 10 -10z m-315 -10 c3
-5 -1 -10 -9 -10 -9 0 -16 5 -16 10 0 6 4 10 9 10 6 0 13 -4 16 -10z m295 -26
c0 -3 -7 -1 -15 6 -8 7 -15 17 -15 22 0 5 7 3 15 -6 8 -8 15 -18 15 -22z m396
7 c0 -11 -5 -17 -13 -14 -17 6 -17 20 0 26 6 3 12 6 12 6 1 1 1 -7 1 -18z
m-674 -8 c-6 -3 -10 -9 -7 -14 4 -5 -1 -6 -9 -3 -11 4 -16 0 -16 -10 0 -9 8
-16 19 -16 29 0 32 -34 5 -65 -13 -16 -24 -23 -24 -16 0 7 -4 9 -10 6 -5 -3
-10 -1 -10 5 0 7 6 10 14 7 19 -8 28 3 16 19 -6 6 -21 10 -33 7 -17 -4 -19 -2
-8 5 8 6 15 18 16 29 3 29 16 53 25 48 5 -3 12 0 15 6 4 5 10 7 14 3 3 -4 0
-9 -7 -11z m80 2 c12 11 18 13 11 6 -6 -7 -9 -21 -6 -30 4 -12 3 -13 -5 -2
-10 14 -28 -2 -18 -17 2 -4 -4 -8 -14 -8 -15 0 -16 3 -8 14 8 9 8 16 0 24 -9
9 -12 9 -12 -2 0 -7 -2 -11 -5 -8 -3 3 -3 13 1 22 6 15 7 15 19 -1 13 -17 14
-17 37 2z m39 -28 c-13 -13 -15 1 -4 30 7 17 8 17 11 -1 2 -10 -1 -23 -7 -29z
m49 32 c0 -8 4 -8 14 1 13 10 13 8 3 -14 -8 -16 -13 -20 -15 -11 -2 7 -10 11
-18 8 -14 -5 -19 8 -7 20 10 11 23 8 23 -4z m180 -9 c0 -5 -4 -10 -10 -10 -5
0 -10 5 -10 10 0 6 5 10 10 10 6 0 10 -4 10 -10z m135 0 c3 -5 1 -10 -4 -10
-6 0 -11 5 -11 10 0 6 2 10 4 10 3 0 8 -4 11 -10z m59 -5 c-4 -8 -11 -12 -16
-9 -6 4 -5 10 3 15 19 12 19 11 13 -6z m-722 -39 c41 -23 48 -24 62 -11 8 8
22 12 31 9 24 -9 0 -33 -28 -27 -17 4 -19 3 -7 -6 8 -5 12 -12 9 -15 -10 -10
-129 67 -129 83 0 11 3 12 8 5 4 -7 28 -23 54 -38z m394 19 c-3 -8 -1 -15 5
-15 6 0 7 -5 3 -11 -5 -8 -9 -7 -14 1 -6 10 -15 6 -34 -15 -14 -15 -26 -24
-26 -19 0 8 60 72 69 73 2 1 1 -6 -3 -14z m44 -10 c0 -8 -4 -15 -10 -15 -5 0
-10 7 -10 15 0 8 5 15 10 15 6 0 10 -7 10 -15z m260 5 c0 -5 -4 -10 -10 -10
-5 0 -10 5 -10 10 0 6 5 10 10 10 6 0 10 -4 10 -10z m-370 -10 c0 -5 -2 -10
-4 -10 -3 0 -8 5 -11 10 -3 6 -1 10 4 10 6 0 11 -4 11 -10z m452 -22 c-7 -7
-12 -8 -12 -2 0 14 12 26 19 19 2 -3 -1 -11 -7 -17z m-482 -13 c-7 -9 -15 -13
-17 -11 -6 6 20 36 26 30 2 -2 -2 -10 -9 -19z m-43 1 c-3 -7 0 -19 6 -25 8 -8
8 -11 -1 -11 -7 0 -12 5 -12 10 0 6 -3 9 -7 9 -20 -3 -33 2 -33 12 0 8 5 8 15
-1 12 -10 16 -9 21 4 3 9 8 16 11 16 3 0 3 -6 0 -14z m150 -18 c-3 -8 -6 -5
-6 6 -1 11 2 17 5 13 3 -3 4 -12 1 -19z m130 0 c-3 -8 -6 -5 -6 6 -1 11 2 17
5 13 3 -3 4 -12 1 -19z m-159 -5 c-2 -9 -10 -18 -18 -20 -12 -4 -13 -3 -1 5 7
5 10 15 7 21 -4 6 -2 11 4 11 6 0 10 -8 8 -17z m-258 -19 c0 -8 -5 -12 -10 -9
-6 4 -8 11 -5 16 9 14 15 11 15 -7z m86 8 c-7 -11 20 -43 34 -40 7 2 15 -4 17
-12 4 -12 3 -12 -5 -2 -8 11 -14 9 -32 -10 -22 -23 -22 -23 -11 0 6 12 9 23 6
23 -21 5 -32 4 -44 -5 -11 -9 -13 -8 -9 4 3 8 13 14 22 13 11 0 15 4 12 12 -2
7 -2 16 1 19 9 9 15 7 9 -2z m104 4 c0 -3 -4 -8 -10 -11 -5 -3 -10 -1 -10 4 0
6 5 11 10 11 6 0 10 -2 10 -4z m128 -37 c-3 -8 -7 -3 -11 10 -4 17 -3 21 5 13
5 -5 8 -16 6 -23z m-161 6 c0 -8 -4 -12 -9 -9 -5 3 -6 10 -3 15 9 13 12 11 12
-6z m123 0 c-7 -8 -17 -15 -22 -15 -11 0 14 29 26 30 5 0 3 -7 -4 -15z m-37
-48 c-7 -12 -19 3 -28 33 l-8 25 21 -25 c11 -14 18 -29 15 -33z m37 3 c0 -5
-5 -10 -11 -10 -5 0 -7 5 -4 10 3 6 8 10 11 10 2 0 4 -4 4 -10z m-158 -7 c-8
-3 -5 -11 10 -25 22 -19 6 -15 -19 5 -14 11 -8 27 10 26 9 0 8 -2 -1 -6z m85
0 c-4 -3 -3 -11 2 -17 13 -17 -21 -47 -39 -35 -12 9 -12 10 3 5 9 -3 18 0 19
7 0 7 2 17 3 22 2 6 3 13 4 18 0 4 4 7 8 7 3 0 3 -3 0 -7z m-37 -13 c0 -5 -5
-10 -11 -10 -5 0 -7 5 -4 10 3 6 8 10 11 10 2 0 4 -4 4 -10z m90 -10 c0 -5 -2
-10 -4 -10 -3 0 -8 5 -11 10 -3 6 -1 10 4 10 6 0 11 -4 11 -10z m177 -65 c0
-8 -4 -12 -9 -9 -5 3 -6 10 -3 15 9 13 12 11 12 -6z m-62 -15 c3 -5 1 -10 -4
-10 -6 0 -11 5 -11 10 0 6 2 10 4 10 3 0 8 -4 11 -10z m105 6 c0 -3 -4 -8 -10
-11 -5 -3 -10 -1 -10 4 0 6 5 11 10 11 6 0 10 -2 10 -4z m-69 -83 c13 -16 12
-17 -3 -4 -10 7 -18 15 -18 17 0 8 8 3 21 -13z m65 -18 c-24 -18 -33 -19 -42
-3 -5 7 -2 9 8 6 8 -4 21 -2 29 3 22 14 26 10 5 -6z m24 -47 c0 -6 -6 -5 -15
2 -8 7 -15 14 -15 16 0 2 7 1 15 -2 8 -4 15 -11 15 -16z m-614 -892 c26 -26
34 -42 34 -71 0 -29 -8 -45 -34 -71 -19 -19 -44 -34 -55 -34 -36 0 -80 28 -97
62 -23 44 -5 101 39 128 46 29 74 25 113 -14z m-396 -835 c12 -24 13 -101 1
-119 -14 -22 -135 -31 -328 -25 -141 5 -183 9 -183 19 0 11 37 120 43 126 1 1
81 5 177 8 96 3 198 7 227 8 43 2 54 -2 63 -17z"/>
<path d="M7824 5325 c21 -16 32 -13 21 4 -3 6 -14 11 -23 11 -15 -1 -15 -2 2
-15z"/>
<path d="M8136 5762 c-3 -5 1 -9 9 -9 8 0 12 4 9 9 -3 4 -7 8 -9 8 -2 0 -6 -4
-9 -8z"/>
<path d="M8402 5750 c0 -14 2 -19 5 -12 2 6 2 18 0 25 -3 6 -5 1 -5 -13z"/>
<path d="M7790 5750 c-9 -6 -10 -10 -3 -10 6 0 15 5 18 10 8 12 4 12 -15 0z"/>
<path d="M8429 5749 c-10 -8 -7 -8 10 -4 22 7 23 5 18 -21 -4 -16 -4 -23 -1
-16 3 6 13 12 22 12 14 0 14 2 3 9 -7 5 -11 13 -8 18 8 12 -26 14 -44 2z"/>
<path d="M2625 5741 c-3 -5 -1 -12 5 -16 5 -3 10 1 10 9 0 18 -6 21 -15 7z"/>
<path d="M2768 5743 c7 -3 16 -2 19 1 4 3 -2 6 -13 5 -11 0 -14 -3 -6 -6z"/>
<path d="M3195 5739 c-4 -6 -5 -12 -2 -15 2 -3 7 2 10 11 7 17 1 20 -8 4z"/>
<path d="M7707 5729 c7 -7 15 -10 18 -7 3 3 -2 9 -12 12 -14 6 -15 5 -6 -5z"/>
<path d="M7900 5720 c0 -11 2 -20 4 -20 2 0 6 9 9 20 3 11 1 20 -4 20 -5 0 -9
-9 -9 -20z"/>
<path d="M8005 5730 c-3 -6 1 -7 9 -4 18 7 21 14 7 14 -6 0 -13 -4 -16 -10z"/>
<path d="M8335 5730 c-3 -5 -1 -10 4 -10 6 0 11 5 11 10 0 6 -2 10 -4 10 -3 0
-8 -4 -11 -10z"/>
<path d="M2451 5714 c-21 -15 -30 -41 -10 -28 8 5 8 1 0 -14 -7 -12 -7 -23 -2
-26 5 -4 11 -1 13 5 3 9 9 9 26 0 13 -7 19 -17 16 -26 -4 -8 -1 -15 6 -15 7 0
10 11 9 28 -2 15 0 33 4 40 5 6 4 12 -2 12 -6 0 -11 6 -11 14 0 21 -25 26 -49
10z m39 -35 c0 -18 -2 -19 -15 -9 -8 7 -15 16 -15 21 0 5 7 9 15 9 9 0 15 -9
15 -21z"/>
<path d="M2737 5712 c-9 -10 -17 -22 -17 -27 0 -5 6 -1 13 10 8 10 19 15 25
11 6 -3 14 -1 18 5 4 7 3 9 -4 5 -5 -3 -12 -1 -14 5 -2 6 -11 2 -21 -9z"/>
<path d="M7950 5720 c8 -5 20 -10 25 -10 6 0 3 5 -5 10 -8 5 -19 10 -25 10 -5
0 -3 -5 5 -10z"/>
<path d="M2865 5709 c-4 -6 -5 -12 -2 -15 2 -3 7 2 10 11 7 17 1 20 -8 4z"/>
<path d="M7760 5716 c0 -2 7 -9 15 -16 13 -11 14 -10 9 4 -5 14 -24 23 -24 12z"/>
<path d="M7810 5710 c0 -5 5 -10 11 -10 5 0 7 5 4 10 -3 6 -8 10 -11 10 -2 0
-4 -4 -4 -10z"/>
<path d="M8028 5706 c-10 -7 -15 -16 -12 -19 4 -3 13 1 21 9 20 19 13 26 -9
10z"/>
<path d="M8230 5710 c0 -6 7 -10 15 -10 8 0 15 2 15 4 0 2 -7 6 -15 10 -8 3
-15 1 -15 -4z"/>
<path d="M2921 5703 c-1 -6 -4 -20 -7 -30 -5 -17 -5 -17 6 0 6 10 9 23 6 30
-3 9 -5 9 -5 0z"/>
<path d="M8116 5698 c3 -4 12 -8 20 -8 8 0 14 4 14 8 0 4 -9 8 -19 8 -11 0
-17 -4 -15 -8z"/>
<path d="M8180 5696 c4 -4 16 -4 26 2 16 9 14 10 -8 9 -15 -1 -23 -6 -18 -11z"/>
<path d="M8284 5703 c10 -10 46 -11 40 -1 -3 4 -15 8 -26 8 -12 0 -18 -3 -14
-7z"/>
<path d="M8420 5700 c-9 -6 -10 -10 -3 -10 6 0 15 5 18 10 8 12 4 12 -15 0z"/>
<path d="M7943 5685 c-19 -21 -16 -27 7 -13 11 7 20 16 20 20 0 12 -14 9 -27
-7z"/>
<path d="M8350 5680 c11 -21 35 -27 45 -11 3 5 0 13 -6 17 -8 4 -9 3 -5 -4 4
-7 3 -12 -2 -12 -6 0 -12 7 -16 15 -3 8 -10 15 -16 15 -8 0 -8 -6 0 -20z"/>
<path d="M3256 5673 c-6 -14 -5 -15 5 -6 7 7 10 15 7 18 -3 3 -9 -2 -12 -12z"/>
<path d="M7535 5680 c3 -5 8 -10 11 -10 2 0 4 5 4 10 0 6 -5 10 -11 10 -5 0
-7 -4 -4 -10z"/>
<path d="M7692 5676 c7 -8 15 -12 17 -11 5 6 -10 25 -20 25 -5 0 -4 -6 3 -14z"/>
<path d="M7845 5680 c-4 -6 -11 -7 -17 -4 -6 4 -8 2 -4 -4 3 -6 -1 -15 -10
-20 -9 -5 -12 -12 -7 -15 5 -4 20 7 32 23 12 17 19 30 17 30 -3 0 -8 -5 -11
-10z"/>
<path d="M8221 5683 c-1 -17 16 -25 25 -12 4 7 3 9 -4 5 -5 -3 -13 0 -15 6 -4
9 -6 10 -6 1z"/>
<path d="M8270 5676 c0 -13 6 -15 28 -10 33 8 41 14 19 14 -8 0 -22 3 -31 6
-11 4 -16 1 -16 -10z"/>
<path d="M8432 5678 c-7 -7 -12 -19 -12 -27 0 -11 5 -8 16 7 18 25 15 39 -4
20z"/>
<path d="M2736 5672 c-4 -7 0 -19 8 -28 13 -12 13 -18 3 -29 -10 -11 -13 -10
-15 6 -3 15 -6 16 -16 7 -11 -10 -10 -15 1 -26 12 -12 17 -11 37 7 26 25 38
27 30 6 -8 -21 2 -19 26 5 22 22 26 40 10 40 -5 0 -10 -7 -10 -16 0 -11 -5
-14 -16 -10 -9 3 -20 6 -25 6 -5 0 -13 10 -18 22 -5 14 -10 18 -15 10z"/>
<path d="M2770 5671 c0 -5 5 -13 10 -16 6 -3 10 -2 10 4 0 5 -4 13 -10 16 -5
3 -10 2 -10 -4z"/>
<path d="M3146 5663 c-6 -14 -5 -15 5 -6 7 7 10 15 7 18 -3 3 -9 -2 -12 -12z"/>
<path d="M8111 5667 c-6 -6 -11 -16 -11 -21 0 -6 5 -3 11 7 10 18 12 18 26 -3
11 -15 21 -19 36 -14 20 6 19 4 -5 -19 -32 -30 -34 -37 -13 -37 8 0 15 6 15
14 0 8 7 17 16 20 9 3 14 13 11 20 -4 9 1 17 11 20 9 2 6 3 -8 2 -14 -1 -31
-5 -37 -9 -8 -5 -13 -3 -13 6 0 20 -25 28 -39 14z"/>
<path d="M2860 5653 c0 -8 4 -12 9 -9 5 4 11 1 13 -6 3 -8 6 -6 10 4 5 11 0
18 -13 21 -12 3 -19 0 -19 -10z"/>
<path d="M2930 5655 c-11 -13 -10 -14 4 -9 9 3 16 10 16 15 0 13 -6 11 -20 -6z"/>
<path d="M7860 5655 c0 -8 4 -15 10 -15 5 0 7 7 4 15 -4 8 -8 15 -10 15 -2 0
-4 -7 -4 -15z"/>
<path d="M7255 5650 c-3 -5 -1 -10 4 -10 6 0 11 5 11 10 0 6 -2 10 -4 10 -3 0
-8 -4 -11 -10z"/>
<path d="M7730 5650 c0 -5 5 -10 10 -10 6 0 10 5 10 10 0 6 -4 10 -10 10 -5 0
-10 -4 -10 -10z"/>
<path d="M8320 5649 c-13 -9 -12 -10 2 -5 10 3 20 1 23 -5 4 -5 11 -7 16 -3
12 7 2 24 -14 24 -7 0 -19 -5 -27 -11z"/>
<path d="M2993 5643 c-15 -5 -17 -23 -4 -23 5 0 11 7 15 15 3 8 4 15 3 14 -1
0 -8 -3 -14 -6z"/>
<path d="M7684 5635 c-3 -8 -4 -20 -1 -27 3 -7 6 -2 6 11 1 17 5 21 17 17 8
-3 12 -2 9 4 -9 15 -25 12 -31 -5z"/>
<path d="M7770 5640 c0 -5 5 -10 11 -10 5 0 7 5 4 10 -3 6 -8 10 -11 10 -2 0
-4 -4 -4 -10z"/>
<path d="M8386 5643 c-11 -11 -6 -23 9 -23 8 0 15 4 15 9 0 13 -16 22 -24 14z"/>
<path d="M8434 5633 c-9 -15 -7 -21 15 -34 18 -11 26 -24 27 -50 3 -50 3 -51
14 -44 6 4 8 10 5 15 -3 4 4 6 15 3 17 -5 20 0 20 26 0 29 -2 31 -20 21 -11
-6 -20 -7 -20 -1 0 5 7 11 15 15 8 3 15 18 15 33 0 22 -2 25 -10 13 -9 -13
-11 -13 -20 0 -9 13 -12 13 -21 -2 -14 -24 -32 -23 -24 2 8 25 3 26 -11 3z
m56 -28 c0 -8 -2 -15 -4 -15 -2 0 -6 7 -10 15 -3 8 -1 15 4 15 6 0 10 -7 10
-15z"/>
<path d="M3135 5630 c-3 -6 1 -7 9 -4 18 7 21 14 7 14 -6 0 -13 -4 -16 -10z"/>
<path d="M7205 5630 c-3 -5 -1 -10 4 -10 6 0 11 5 11 10 0 6 -2 10 -4 10 -3 0
-8 -4 -11 -10z"/>
<path d="M7420 5629 c0 -5 5 -7 10 -4 6 3 10 8 10 11 0 2 -4 4 -10 4 -5 0 -10
-5 -10 -11z"/>
<path d="M7840 5630 c0 -5 5 -10 11 -10 5 0 7 5 4 10 -3 6 -8 10 -11 10 -2 0
-4 -4 -4 -10z"/>
<path d="M2851 5609 c-1 -16 5 -29 15 -33 23 -9 34 -7 34 4 0 5 -6 7 -13 4 -8
-3 -18 7 -24 23 l-11 28 -1 -26z"/>
<path d="M7461 5614 c0 -11 3 -14 6 -6 3 7 2 16 -1 19 -3 4 -6 -2 -5 -13z"/>
<path d="M7645 5620 c-3 -5 -1 -10 4 -10 6 0 11 5 11 10 0 6 -2 10 -4 10 -3 0
-8 -4 -11 -10z"/>
<path d="M2917 5613 c-4 -3 -7 -11 -7 -17 0 -6 5 -5 12 2 6 6 9 14 7 17 -3 3
-9 2 -12 -2z"/>
<path d="M3020 5611 c0 -6 4 -13 10 -16 6 -3 7 1 4 9 -7 18 -14 21 -14 7z"/>
<path d="M7250 5611 c0 -6 4 -13 10 -16 6 -3 7 1 4 9 -7 18 -14 21 -14 7z"/>
<path d="M7740 5609 c0 -5 5 -7 10 -4 6 3 10 8 10 11 0 2 -4 4 -10 4 -5 0 -10
-5 -10 -11z"/>
<path d="M7780 5610 c0 -5 5 -10 10 -10 6 0 10 5 10 10 0 6 -4 10 -10 10 -5 0
-10 -4 -10 -10z"/>
<path d="M7820 5613 c0 -5 -14 -24 -31 -42 -16 -18 -28 -36 -25 -39 7 -6 46
37 46 50 0 4 7 8 15 8 17 0 20 16 5 25 -5 3 -10 2 -10 -2z"/>
<path d="M7957 5613 c-4 -3 -7 -11 -7 -17 0 -6 5 -5 12 2 6 6 9 14 7 17 -3 3
-9 2 -12 -2z"/>
<path d="M2803 5591 c-14 -12 -18 -22 -13 -31 4 -7 6 -19 3 -26 -7 -19 44 -41
59 -26 16 16 2 28 -15 13 -11 -8 -16 -8 -23 1 -14 19 -11 51 5 56 9 3 11 -2 7
-19 -3 -13 -3 -18 0 -11 5 10 9 10 20 1 10 -8 14 -8 14 0 0 6 -4 11 -9 11 -5
0 -13 11 -18 24 -8 24 -9 24 -30 7z"/>
<path d="M7705 5600 c-3 -5 -1 -10 4 -10 6 0 11 5 11 10 0 6 -2 10 -4 10 -3 0
-8 -4 -11 -10z"/>
<path d="M8230 5600 c0 -5 5 -10 10 -10 6 0 10 5 10 10 0 6 -4 10 -10 10 -5 0
-10 -4 -10 -10z"/>
<path d="M2996 5592 c-3 -5 1 -15 9 -22 8 -7 15 -20 15 -29 0 -14 2 -14 10 -1
5 8 5 17 1 20 -4 3 -12 13 -18 24 -6 11 -13 14 -17 8z"/>
<path d="M3136 5593 c5 -5 12 -12 16 -18 4 -6 8 -2 8 8 0 9 -7 17 -17 17 -9 0
-12 -3 -7 -7z"/>
<path d="M7488 5593 c7 -3 16 -2 19 1 4 3 -2 6 -13 5 -11 0 -14 -3 -6 -6z"/>
<path d="M7656 5591 c-4 -7 -5 -15 -2 -18 9 -9 19 4 14 18 -4 11 -6 11 -12 0z"/>
<path d="M2930 5578 c0 -6 3 -8 7 -5 3 4 12 2 20 -4 8 -7 13 -8 13 -1 0 5 -7
13 -16 16 -22 8 -24 8 -24 -6z"/>
<path d="M7580 5575 c8 -11 15 -21 16 -23 1 -2 5 5 8 15 4 9 4 14 0 10 -4 -4
-14 -1 -23 6 -14 11 -15 10 -1 -8z"/>
<path d="M5155 5571 c-32 -14 -91 -85 -105 -126 -23 -70 15 -179 78 -223 92
-66 193 -38 247 69 47 92 23 204 -55 255 -41 27 -130 41 -165 25z"/>
<path d="M7390 5569 c0 -5 5 -7 10 -4 6 3 10 8 10 11 0 2 -4 4 -10 4 -5 0 -10
-5 -10 -11z"/>
<path d="M7471 5571 c-8 -5 -9 -11 -3 -15 5 -3 12 1 16 9 6 17 6 18 -13 6z"/>
<path d="M7680 5565 c0 -8 5 -15 10 -15 6 0 10 7 10 15 0 8 -4 15 -10 15 -5 0
-10 -7 -10 -15z"/>
<path d="M7725 5569 c-11 -4 -14 -8 -7 -8 17 -1 15 -21 -3 -21 -8 0 -15 -4
-15 -10 0 -5 6 -7 14 -4 8 3 17 1 21 -5 3 -6 -1 -11 -9 -11 -9 0 -16 -5 -16
-11 0 -6 7 -8 16 -5 9 3 20 6 25 6 14 0 11 28 -3 33 -10 3 -10 7 0 19 16 20 4
28 -23 17z"/>
<path d="M7548 5563 c7 -3 16 -2 19 1 4 3 -2 6 -13 5 -11 0 -14 -3 -6 -6z"/>
<path d="M2765 5550 c3 -5 -1 -10 -9 -10 -9 0 -16 -4 -16 -10 0 -5 4 -10 10
-10 5 0 21 -12 35 -27 22 -24 25 -25 25 -9 0 11 -3 16 -7 13 -10 -11 -34 30
-27 47 3 9 1 16 -6 16 -6 0 -8 -4 -5 -10z"/>
<path d="M2985 5550 c3 -5 1 -10 -5 -10 -6 0 -8 -5 -4 -11 4 -8 9 -7 15 2 12
19 11 29 -2 29 -5 0 -7 -4 -4 -10z"/>
<path d="M7320 5550 c0 -5 5 -10 10 -10 6 0 10 5 10 10 0 6 -4 10 -10 10 -5 0
-10 -4 -10 -10z"/>
<path d="M7500 5549 c0 -5 5 -7 10 -4 6 3 10 8 10 11 0 2 -4 4 -10 4 -5 0 -10
-5 -10 -11z"/>
<path d="M7615 5550 c-8 -13 3 -30 18 -29 9 0 9 2 0 5 -7 3 -9 12 -6 20 6 16
-3 19 -12 4z"/>
<path d="M2870 5540 c0 -6 5 -10 11 -10 8 0 7 -6 -2 -17 -13 -16 -12 -17 4 -4
21 17 22 27 2 35 -8 3 -15 1 -15 -4z"/>
<path d="M2945 5540 c3 -5 8 -10 11 -10 2 0 4 5 4 10 0 6 -5 10 -11 10 -5 0
-7 -4 -4 -10z"/>
<path d="M7440 5540 c0 -5 5 -10 11 -10 5 0 7 5 4 10 -3 6 -8 10 -11 10 -2 0
-4 -4 -4 -10z"/>
<path d="M2910 5513 c-8 -17 -18 -29 -24 -26 -5 3 -6 1 -2 -5 4 -7 2 -12 -3
-12 -6 0 -11 5 -11 10 0 17 -26 11 -44 -9 -19 -21 -14 -41 9 -41 7 0 16 -8 18
-17 4 -16 5 -16 6 -1 1 9 8 15 19 13 9 -1 11 0 5 2 -17 6 -16 11 1 29 19 18
30 18 23 -1 -4 -8 -1 -17 5 -21 6 -4 8 -3 4 4 -3 6 2 18 11 28 17 17 17 18 1
11 -13 -5 -18 -1 -18 13 0 20 11 26 24 13 3 -4 13 -8 22 -9 12 -2 13 1 3 12
-6 7 -15 12 -19 9 -5 -3 -10 3 -12 12 -3 14 -7 10 -18 -14z m-50 -64 c0 -18
-2 -19 -15 -9 -8 7 -15 16 -15 21 0 5 7 9 15 9 9 0 15 -9 15 -21z"/>
<path d="M3041 5524 c0 -11 3 -14 6 -6 3 7 2 16 -1 19 -3 4 -6 -2 -5 -13z"/>
<path d="M7360 5529 c0 -5 5 -7 10 -4 6 3 10 8 10 11 0 2 -4 4 -10 4 -5 0 -10
-5 -10 -11z"/>
<path d="M7406 5532 c-2 -4 -1 -14 3 -21 6 -9 10 -7 14 8 5 20 -7 29 -17 13z"/>
<path d="M7665 5529 c-4 -6 -5 -12 -2 -15 2 -3 7 2 10 11 7 17 1 20 -8 4z"/>
<path d="M7788 5518 c-17 -21 -16 -38 3 -38 5 0 9 8 9 18 0 10 5 23 12 30 7 7
8 12 3 12 -6 0 -18 -10 -27 -22z"/>
<path d="M2716 5512 c-5 -9 15 -27 31 -27 23 0 22 12 -2 23 -13 6 -26 8 -29 4z"/>
<path d="M3005 5510 c3 -5 8 -10 11 -10 2 0 4 5 4 10 0 6 -5 10 -11 10 -5 0
-7 -4 -4 -10z"/>
<path d="M7540 5505 c-11 -13 -10 -14 4 -9 9 3 16 10 16 15 0 13 -6 11 -20 -6z"/>
<path d="M7595 5510 c3 -5 11 -10 16 -10 6 0 7 5 4 10 -3 6 -11 10 -16 10 -6
0 -7 -4 -4 -10z"/>
<path d="M7685 5501 c-3 -6 -11 -9 -16 -6 -5 4 -9 2 -9 -3 0 -18 13 -21 27 -6
9 8 13 17 10 20 -3 3 -8 0 -12 -5z"/>
<path d="M8521 5494 c0 -11 3 -14 6 -6 3 7 2 16 -1 19 -3 4 -6 -2 -5 -13z"/>
<path d="M7440 5490 c0 -5 7 -7 15 -4 8 4 15 8 15 10 0 2 -7 4 -15 4 -8 0 -15
-4 -15 -10z"/>
<path d="M7635 5490 c-3 -5 -1 -10 4 -10 6 0 11 5 11 10 0 6 -2 10 -4 10 -3 0
-8 -4 -11 -10z"/>
<path d="M7478 5473 c7 -3 16 -2 19 1 4 3 -2 6 -13 5 -11 0 -14 -3 -6 -6z"/>
<path d="M7691 5458 c-10 -17 -15 -18 -21 -7 -5 7 -12 10 -16 6 -4 -4 1 -14
12 -21 16 -12 19 -12 22 -1 2 8 10 11 18 8 8 -3 14 1 14 10 0 25 -15 27 -29 5z"/>
<path d="M7600 5440 c-13 -8 -13 -10 2 -10 9 0 20 5 23 10 8 13 -5 13 -25 0z"/>
<path d="M7550 5436 c0 -2 7 -7 16 -10 8 -3 12 -2 9 4 -6 10 -25 14 -25 6z"/>
<path d="M7540 5416 c0 -2 7 -7 16 -10 8 -3 12 -2 9 4 -6 10 -25 14 -25 6z"/>
<path d="M7720 5390 c0 -5 5 -10 10 -10 6 0 10 5 10 10 0 6 -4 10 -10 10 -5 0
-10 -4 -10 -10z"/>
<path d="M5140 4698 c-60 -41 -64 -120 -10 -182 39 -44 79 -52 135 -27 51 22
76 63 77 124 0 35 -5 46 -36 74 -30 28 -43 33 -84 33 -34 0 -59 -7 -82 -22z"/>
<path d="M5158 4219 c-66 -34 -87 -113 -48 -176 47 -79 136 -89 201 -24 33 32
39 45 39 80 0 60 -24 99 -73 122 -53 23 -72 23 -119 -2z"/>
<path d="M5158 3718 c-65 -37 -86 -114 -48 -175 26 -44 63 -66 110 -66 47 0
84 22 110 66 39 64 14 139 -59 177 -50 25 -67 25 -113 -2z"/>
<path d="M5165 3220 c-62 -25 -93 -116 -61 -177 53 -103 178 -108 226 -8 25
52 25 81 0 123 -36 59 -108 86 -165 62z"/>
<path d="M5129 2681 c-34 -34 -39 -44 -39 -85 0 -87 47 -136 128 -136 68 0
122 61 122 138 0 67 -63 122 -141 122 -23 0 -42 -10 -70 -39z"/>
</g>
</svg>
